
<svg version="1.1" id="Capa_1" xmlns="http://www.w3.org/2000/svg" xmlns:xlink="http://www.w3.org/1999/xlink" x="0px" y="0px"
	 viewBox="0 0 1366 768" style="enable-background:new 0 0 1366 768;" xml:space="preserve">
<style type="text/css">
	.st0{display:none;fill:#FFFFFF;}
	.st1{stroke:#121212;}
</style>
<g>
	<g>
		<path class="st0" d="M0,768C0,512,0,256,0,0c256,0,512,0,768,0c0,256,0,512,0,768C512,768,256,768,0,768z M382.98,749.58
			c49.18,0,98.35,0.02,147.53-0.01c18.52-0.01,37.17,1.21,55.55-0.49c93.39-8.63,165.31-87.8,165.49-181.88
			c0.23-122.26,0.22-244.53-0.16-366.79c-0.04-14.01-1.76-28.33-5-41.96c-20.58-86.41-93.93-141.91-187.05-142
			c-116.88-0.11-233.75-0.21-350.63,0.19c-16.05,0.06-32.45,1.47-48.08,4.95C74.82,40.66,16.47,114.24,16.42,202.4
			c-0.07,119.57-0.05,239.14,0.05,358.71c0.01,9.4,0.6,18.85,1.65,28.19c10.13,90.03,88.63,160.27,178.93,160.28
			C259.03,749.58,321.01,749.58,382.98,749.58z"/>
		<path class="st1" d="M382.98,749.58c-61.97,0-123.95,0-185.92,0c-90.3,0-168.8-70.25-178.93-160.28
			c-1.05-9.34-1.65-18.79-1.65-28.19c-0.11-119.57-0.12-239.14-0.05-358.71c0.05-88.15,58.4-161.74,144.19-180.83
			c15.64-3.48,32.03-4.89,48.08-4.95c116.87-0.4,233.75-0.3,350.63-0.19c93.12,0.09,166.47,55.59,187.05,142
			c3.25,13.63,4.96,27.95,5,41.96c0.38,122.26,0.39,244.53,0.16,366.79c-0.18,94.08-72.09,173.25-165.49,181.88
			c-18.37,1.7-37.02,0.48-55.55,0.49C481.33,749.6,432.15,749.58,382.98,749.58z M392.72,458.32c1.57,0.25,2.96,0.2,4.12,0.69
			c73.92,31.36,171.84-20.63,184.33-109.41c5.03-35.76,4.37-72.55,3.59-108.82c-0.54-25.36-21-41.72-44.26-39.69
			c-26.14,2.28-52.22,5.27-78.39,6.97c-52.19,3.39-90.88,28.35-117.88,72.37c-3.01,4.91-5.3,5.9-11.11,4.22
			c-11.84-3.42-24.27-7.8-36.24-7.23c-29.48,1.41-58.98,4.43-88.19,8.72c-17.61,2.59-28.88,22.41-25.13,40.28
			c4.49,21.38,9.67,42.61,14.36,63.95c15.47,70.34,102.05,112.93,166.13,68.77c1.27-0.87,2.88-1.26,5.49-2.36
			c0.3,4.24,0.96,7.48,0.68,10.64c-2.16,25.1-4.4,50.19-6.84,75.27c-1.18,12.12,5.96,21.53,17.64,22.53
			c11.03,0.95,19.94-6.95,20.47-18.81c0.28-6.36-0.13-12.81-0.82-19.15C398.2,504.64,395.47,482.03,392.72,458.32z"/>
		<path class="st0" d="M392.72,458.32c2.76,23.71,5.48,46.32,7.95,68.97c0.69,6.34,1.11,12.79,0.82,19.15
			c-0.53,11.86-9.44,19.76-20.47,18.81c-11.68-1-18.82-10.41-17.64-22.53c2.44-25.07,4.68-50.17,6.84-75.27
			c0.27-3.16-0.38-6.4-0.68-10.64c-2.61,1.1-4.22,1.48-5.49,2.36c-64.08,44.15-150.67,1.57-166.13-68.77
			c-4.69-21.34-9.87-42.57-14.36-63.95c-3.76-17.88,7.52-37.7,25.13-40.28c29.21-4.29,58.71-7.31,88.19-8.72
			c11.97-0.57,24.39,3.8,36.24,7.23c5.81,1.68,8.1,0.69,11.11-4.22c27-44.02,65.69-68.98,117.88-72.37
			c26.17-1.7,52.26-4.7,78.39-6.97c23.26-2.03,43.72,14.33,44.26,39.69c0.78,36.26,1.44,73.06-3.59,108.82
			c-12.49,88.78-110.41,140.77-184.33,109.41C395.68,458.52,394.28,458.57,392.72,458.32z M386.52,435.24
			c8.06,3.91,13.82,7.41,20.04,9.62c77.98,27.63,153.62-35.22,159.54-104.88c2.64-31.11,1.86-62.52,2.26-93.81
			c0.25-19.61-9.55-29.31-29.42-28.2c-26.17,1.47-52.31,3.7-78.4,6.21c-43.72,4.2-77.21,25.22-100.84,62.27
			c-4.4,6.9-4.21,11.18,2.73,16.62c20.68,16.21,32.83,37.87,37.64,63.67c0.88,4.74,1.87,9.45,2.81,14.18
			c1.03,0.65,2.06,1.31,3.09,1.96c15.79-15.88,31.57-31.75,47.36-47.63c0.39,0.28,0.78,0.57,1.17,0.85
			C432.26,368.52,410.03,400.94,386.52,435.24z M374.97,424.02c2.83-7.01,5.86-12.64,7.42-18.65
			c15.65-60.34-37.9-118.95-102.17-112.16c-20.39,2.15-40.69,5.11-61.04,7.55c-14.94,1.8-21.92,11.28-18.66,26.05
			c4.41,20.02,8.74,40.06,13.54,59.99c11.62,48.2,57.96,79.82,106.29,72.35c16.18-2.5,30.82-8.7,42.05-21.04
			c-19.87-21.45-39.19-42.31-58.76-63.44C326.87,390.74,349.99,406.74,374.97,424.02z"/>
		<path class="st1" d="M386.52,435.24c23.52-34.3,45.74-66.71,67.97-99.13c-0.39-0.28-0.78-0.57-1.17-0.85
			c-15.79,15.88-31.57,31.75-47.36,47.63c-1.03-0.65-2.06-1.31-3.09-1.96c-0.94-4.72-1.93-9.44-2.81-14.18
			c-4.81-25.8-16.96-47.46-37.64-63.67c-6.94-5.44-7.13-9.72-2.73-16.62c23.64-37.05,57.13-58.07,100.84-62.27
			c26.09-2.51,52.23-4.74,78.4-6.21c19.88-1.12,29.67,8.58,29.42,28.2c-0.4,31.28,0.38,62.7-2.26,93.81
			c-5.92,69.65-81.56,132.51-159.54,104.88C400.34,442.65,394.58,439.15,386.52,435.24z"/>
		<path class="st1" d="M374.97,424.02c-24.98-17.28-48.1-33.27-71.34-49.34c19.57,21.13,38.89,41.99,58.76,63.44
			c-11.23,12.34-25.86,18.54-42.05,21.04c-48.33,7.46-94.67-24.15-106.29-72.35c-4.8-19.93-9.13-39.97-13.54-59.99
			c-3.25-14.77,3.72-24.26,18.66-26.05c20.36-2.45,40.66-5.4,61.04-7.55c64.26-6.79,117.82,51.82,102.17,112.16
			C380.83,411.38,377.8,417.01,374.97,424.02z"/>
	</g>
</g>
</svg>
